<?xml version="1.0" encoding="iso-8859-1"?>
<!-- Generator: Adobe Illustrator 19.0.0, SVG Export Plug-In . SVG Version: 6.00 Build 0)  -->
<svg version="1.1" id="Capa_1" xmlns="http://www.w3.org/2000/svg" xmlns:xlink="http://www.w3.org/1999/xlink" x="0px" y="0px"
	 viewBox="0 0 462.988 462.988" style="enable-background:new 0 0 462.988 462.988;" xml:space="preserve">
<path d="M324.026,271.285c-13.432-16.087-25.032-29.98-25.032-47.416c0-47.931-29.68-75.455-60-79.375v-13.899l20.741-20.741
	c4.365,0.748,8.781,1.116,13.2,1.116c22.002,0,44.097-9.087,60.526-25.516c20.778-20.778,29.811-50.616,23.574-77.869
	c-0.642-2.806-2.833-4.996-5.638-5.638c-27.256-6.237-57.092,2.797-77.87,23.573C253.8,45.25,244.67,73.144,249.135,99.24
	l-10.141,10.141V47.488c0-4.143-3.358-7.5-7.5-7.5s-7.5,3.357-7.5,7.5v29.936l-9.597-9.597c2.618-17.823-3.748-36.676-17.157-50.085
	C182.784,3.287,162-2.995,143.001,1.358c-2.805,0.642-4.996,2.832-5.638,5.638c-4.349,18.999,1.93,39.782,16.385,54.238
	c11.425,11.424,26.801,17.74,42.126,17.74c2.632,0,5.261-0.207,7.87-0.586l20.249,20.25v45.859
	c-14.044,1.829-27.615,8.69-38.096,19.481c-9.993,10.288-21.904,29.029-21.904,59.891c0,17.436-11.6,31.329-25.032,47.416
	c-16.391,19.631-34.968,41.881-34.968,75.632c0,25.392,10.856,54.273,29.04,77.261c19.511,24.664,44.464,38.811,68.46,38.811
	c9.19,0,15.693-2.608,20.918-4.705c3.529-1.415,6.316-2.533,9.082-2.533s5.553,1.118,9.082,2.533
	c5.226,2.097,11.729,4.705,20.918,4.705c23.996,0,48.949-14.146,68.46-38.811c18.184-22.987,29.04-51.869,29.04-77.261
	C358.994,313.166,340.416,290.916,324.026,271.285z M284.134,36.129c15.948-15.948,38.226-23.548,59.171-20.451
	c3.096,20.941-4.503,43.223-20.451,59.17C309.41,88.292,291.466,95.8,273.616,95.973l35.203-35.203c2.929-2.93,2.929-7.678,0-10.607
	c-2.928-2.928-7.677-2.928-10.606,0l-35.205,35.205C263.179,67.518,270.69,49.573,284.134,36.129z M164.355,50.628
	c-9.599-9.601-14.415-22.809-13.16-35.438c12.632-1.257,25.838,3.561,35.438,13.159c6.828,6.829,11.22,15.486,12.744,24.459
	l-18.602-18.602c-2.929-2.928-7.678-2.928-10.606,0c-2.929,2.93-2.929,7.678,0,10.607l18.547,18.547
	C179.777,61.821,171.159,57.431,164.355,50.628z M318.19,414.871c-16.649,21.047-37.314,33.117-56.696,33.117
	c-6.293,0-10.685-1.762-15.334-3.627c-4.427-1.775-9.004-3.611-14.666-3.611s-10.239,1.836-14.666,3.611
	c-4.649,1.865-9.041,3.627-15.334,3.627c-19.382,0-40.047-12.07-56.696-33.117c-16.157-20.425-25.804-45.828-25.804-67.954
	c0-28.312,16.005-47.48,31.482-66.019c14.02-16.791,28.518-34.154,28.518-57.029c0-20.446,6.108-37.542,17.664-49.439
	c9.532-9.813,22.229-15.441,34.836-15.441s25.304,5.628,34.836,15.441c11.556,11.897,17.664,28.993,17.664,49.439
	c0,22.875,14.498,40.238,28.518,57.029c15.478,18.538,31.482,37.707,31.482,66.019C343.994,369.043,334.347,394.446,318.19,414.871z
	"/>
<g>
</g>
<g>
</g>
<g>
</g>
<g>
</g>
<g>
</g>
<g>
</g>
<g>
</g>
<g>
</g>
<g>
</g>
<g>
</g>
<g>
</g>
<g>
</g>
<g>
</g>
<g>
</g>
<g>
</g>
</svg>
